<svg width="18" height="18" viewBox="0 0 18 18" fill="none" xmlns="http://www.w3.org/2000/svg">
<path d="M12.6082 14.9941C12.6045 14.8359 12.5384 14.6855 12.4242 14.5758L6.84847 8.99999L12.4242 3.42421C12.4817 3.36829 12.5274 3.30143 12.5586 3.22756C12.5898 3.15369 12.6059 3.07432 12.6059 2.99413C12.6059 2.87477 12.5702 2.75813 12.5036 2.65912C12.4369 2.56012 12.3422 2.48324 12.2316 2.43833C12.121 2.39342 11.9996 2.3825 11.8827 2.40698C11.7659 2.43147 11.6591 2.49023 11.5758 2.57577L5.57581 8.57577C5.46333 8.6883 5.40014 8.84089 5.40014 8.99999C5.40014 9.15909 5.46333 9.31168 5.57581 9.42421L11.5758 15.4242C11.6596 15.5113 11.7678 15.5711 11.8861 15.5958C12.0045 15.6204 12.1275 15.6087 12.2391 15.5622C12.3507 15.5157 12.4456 15.4366 12.5115 15.3352C12.5774 15.2339 12.6111 15.115 12.6082 14.9941Z" fill="#333333"/>
</svg>
