<svg width="18" height="18" viewBox="0 0 18 18" fill="none" xmlns="http://www.w3.org/2000/svg">
<path d="M5.39177 3.00587C5.39551 3.16413 5.46164 3.3145 5.57575 3.42423L11.1515 9.00001L5.57575 14.5758C5.51828 14.6317 5.47259 14.6986 5.44139 14.7724C5.41019 14.8463 5.39412 14.9257 5.39411 15.0059C5.39414 15.1252 5.42977 15.2419 5.49644 15.3409C5.56311 15.4399 5.65779 15.5168 5.76837 15.5617C5.87896 15.6066 6.00043 15.6175 6.11725 15.593C6.23408 15.5685 6.34094 15.5098 6.42419 15.4242L12.4242 9.42423C12.5367 9.3117 12.5999 9.15911 12.5999 9.00001C12.5999 8.84091 12.5367 8.68832 12.4242 8.57579L6.42419 2.57579C6.3404 2.48865 6.23224 2.42886 6.11389 2.40423C5.99554 2.37961 5.87251 2.39131 5.76091 2.43779C5.64932 2.48428 5.55437 2.56339 5.4885 2.66475C5.42263 2.76612 5.38892 2.88502 5.39177 3.00587Z" fill="#333333"/>
</svg>
