<svg width="22" height="22" viewBox="0 0 22 22" fill="none" xmlns="http://www.w3.org/2000/svg">
<path d="M14.6667 2.93332C13.7184 2.93332 12.9102 3.55128 12.6042 4.39999H2.93335C2.83618 4.39861 2.7397 4.41656 2.64952 4.4528C2.55934 4.48904 2.47727 4.54284 2.40806 4.61107C2.33886 4.6793 2.28391 4.76061 2.2464 4.85026C2.20889 4.93992 2.18958 5.03613 2.18958 5.13332C2.18958 5.2305 2.20889 5.32672 2.2464 5.41638C2.28391 5.50603 2.33886 5.58734 2.40806 5.65557C2.47727 5.7238 2.55934 5.7776 2.64952 5.81384C2.7397 5.85007 2.83618 5.86803 2.93335 5.86665H12.6042C12.9102 6.71536 13.7184 7.33332 14.6667 7.33332C15.615 7.33332 16.4231 6.71536 16.7292 5.86665H19.0667C19.1639 5.86803 19.2603 5.85007 19.3505 5.81384C19.4407 5.7776 19.5228 5.7238 19.592 5.65557C19.6612 5.58734 19.7161 5.50603 19.7536 5.41638C19.7911 5.32672 19.8105 5.2305 19.8105 5.13332C19.8105 5.03613 19.7911 4.93992 19.7536 4.85026C19.7161 4.76061 19.6612 4.6793 19.592 4.61107C19.5228 4.54284 19.4407 4.48904 19.3505 4.4528C19.2603 4.41656 19.1639 4.39861 19.0667 4.39999H16.7292C16.4231 3.55128 15.615 2.93332 14.6667 2.93332ZM14.6667 4.39999C15.0655 4.39999 15.3695 4.69978 15.3914 5.09178C15.3898 5.11993 15.3898 5.14814 15.3914 5.17629C15.3688 5.56757 15.065 5.86665 14.6667 5.86665C14.2679 5.86665 13.9638 5.56686 13.9419 5.17486C13.9436 5.14671 13.9436 5.1185 13.9419 5.09035C13.9645 4.69907 14.2684 4.39999 14.6667 4.39999ZM8.80002 8.79999C7.8517 8.79999 7.04358 9.41794 6.73752 10.2667H2.93335C2.83618 10.2653 2.7397 10.2832 2.64952 10.3195C2.55934 10.3557 2.47727 10.4095 2.40806 10.4777C2.33886 10.546 2.28391 10.6273 2.2464 10.7169C2.20889 10.8066 2.18958 10.9028 2.18958 11C2.18958 11.0972 2.20889 11.1934 2.2464 11.283C2.28391 11.3727 2.33886 11.454 2.40806 11.5222C2.47727 11.5905 2.55934 11.6443 2.64952 11.6805C2.7397 11.7167 2.83618 11.7347 2.93335 11.7333H6.73752C7.04358 12.582 7.8517 13.2 8.80002 13.2C9.74834 13.2 10.5565 12.582 10.8625 11.7333H19.0667C19.1639 11.7347 19.2603 11.7167 19.3505 11.6805C19.4407 11.6443 19.5228 11.5905 19.592 11.5222C19.6612 11.454 19.7161 11.3727 19.7536 11.283C19.7911 11.1934 19.8105 11.0972 19.8105 11C19.8105 10.9028 19.7911 10.8066 19.7536 10.7169C19.7161 10.6273 19.6612 10.546 19.592 10.4777C19.5228 10.4095 19.4407 10.3557 19.3505 10.3195C19.2603 10.2832 19.1639 10.2653 19.0667 10.2667H10.8625C10.5565 9.41794 9.74834 8.79999 8.80002 8.79999ZM8.80002 10.2667C9.19883 10.2667 9.50286 10.5664 9.52476 10.9584C9.52313 10.9866 9.52313 11.0148 9.52476 11.043C9.50218 11.4342 9.19833 11.7333 8.80002 11.7333C8.40121 11.7333 8.09717 11.4335 8.07528 11.0415C8.0769 11.0134 8.0769 10.9852 8.07528 10.957C8.09786 10.5657 8.4017 10.2667 8.80002 10.2667ZM11.7334 14.6667C10.785 14.6667 9.97692 15.2846 9.67085 16.1333H2.93335C2.83618 16.1319 2.7397 16.1499 2.64952 16.1861C2.55934 16.2224 2.47727 16.2762 2.40806 16.3444C2.33886 16.4126 2.28391 16.4939 2.2464 16.5836C2.20889 16.6733 2.18958 16.7695 2.18958 16.8667C2.18958 16.9638 2.20889 17.0601 2.2464 17.1497C2.28391 17.2394 2.33886 17.3207 2.40806 17.3889C2.47727 17.4571 2.55934 17.5109 2.64952 17.5472C2.7397 17.5834 2.83618 17.6014 2.93335 17.6H9.67085C9.97692 18.4487 10.785 19.0667 11.7334 19.0667C12.6817 19.0667 13.4898 18.4487 13.7959 17.6H19.0667C19.1639 17.6014 19.2603 17.5834 19.3505 17.5472C19.4407 17.5109 19.5228 17.4571 19.592 17.3889C19.6612 17.3207 19.7161 17.2394 19.7536 17.1497C19.7911 17.0601 19.8105 16.9638 19.8105 16.8667C19.8105 16.7695 19.7911 16.6733 19.7536 16.5836C19.7161 16.4939 19.6612 16.4126 19.592 16.3444C19.5228 16.2762 19.4407 16.2224 19.3505 16.1861C19.2603 16.1499 19.1639 16.1319 19.0667 16.1333H13.7959C13.4898 15.2846 12.6817 14.6667 11.7334 14.6667ZM11.7334 16.1333C12.1322 16.1333 12.4362 16.4331 12.4581 16.8251C12.4565 16.8533 12.4565 16.8815 12.4581 16.9096C12.4355 17.3009 12.1317 17.6 11.7334 17.6C11.3345 17.6 11.0305 17.3002 11.0086 16.9082C11.0102 16.88 11.0102 16.8518 11.0086 16.8237C11.0312 16.4324 11.335 16.1333 11.7334 16.1333Z" fill="black"/>
</svg>
