<svg width="16" height="16" viewBox="0 0 16 16" fill="none" xmlns="http://www.w3.org/2000/svg">
<path d="M2.67191 11.2073C2.81259 11.204 2.94625 11.1452 3.04379 11.0438L8.00004 6.08752L12.9563 11.0438C13.006 11.0949 13.0654 11.1355 13.1311 11.1632C13.1967 11.1909 13.2673 11.2052 13.3386 11.2052C13.4447 11.2052 13.5484 11.1735 13.6364 11.1143C13.7244 11.055 13.7927 10.9708 13.8326 10.8725C13.8725 10.7742 13.8822 10.6663 13.8605 10.5624C13.8387 10.4586 13.7865 10.3636 13.7105 10.2896L8.37712 4.95627C8.2771 4.85629 8.14146 4.80012 8.00004 4.80012C7.85861 4.80012 7.72298 4.85629 7.62295 4.95627L2.28962 10.2896C2.21217 10.3641 2.15901 10.4602 2.13713 10.5654C2.11524 10.6706 2.12563 10.78 2.16695 10.8792C2.20828 10.9784 2.27859 11.0628 2.3687 11.1213C2.4588 11.1799 2.56449 11.2098 2.67191 11.2073Z" fill="#848484"/>
</svg>
