<svg width="16" height="16" viewBox="0 0 16 16" fill="none" xmlns="http://www.w3.org/2000/svg">
<path d="M13.3281 4.79272C13.1874 4.79605 13.0537 4.85483 12.9562 4.95626L7.99996 9.91251L3.04371 4.95626C2.99401 4.90517 2.93457 4.86456 2.86891 4.83683C2.80325 4.8091 2.7327 4.79481 2.66142 4.7948C2.55532 4.79483 2.45164 4.8265 2.36364 4.88576C2.27563 4.94502 2.2073 5.02918 2.16738 5.12748C2.12745 5.22578 2.11775 5.33375 2.13951 5.4376C2.16128 5.54144 2.21351 5.63643 2.28955 5.71043L7.62288 11.0438C7.7229 11.1437 7.85854 11.1999 7.99996 11.1999C8.14139 11.1999 8.27702 11.1437 8.37705 11.0438L13.7104 5.71043C13.7878 5.63595 13.841 5.53981 13.8629 5.43461C13.8848 5.3294 13.8744 5.22004 13.833 5.12085C13.7917 5.02166 13.7214 4.93726 13.6313 4.87871C13.5412 4.82016 13.4355 4.79019 13.3281 4.79272Z" fill="#848484"/>
</svg>
