<svg width="18" height="18" viewBox="0 0 18 18" fill="none" xmlns="http://www.w3.org/2000/svg">
<path d="M5.99419 2.39413C5.87483 2.39417 5.75819 2.42979 5.65919 2.49646C5.56018 2.56313 5.48331 2.65781 5.43839 2.7684C5.39348 2.87898 5.38257 3.00045 5.40705 3.11728C5.43153 3.2341 5.4903 3.34096 5.57583 3.42421L11.1516 8.99999L5.57583 14.5758C5.51825 14.6311 5.47228 14.6973 5.4406 14.7706C5.40893 14.8438 5.3922 14.9227 5.39139 15.0025C5.39058 15.0823 5.4057 15.1615 5.43587 15.2354C5.46605 15.3093 5.51066 15.3765 5.56711 15.4329C5.62356 15.4894 5.6907 15.534 5.76461 15.5642C5.83851 15.5943 5.9177 15.6095 5.99752 15.6087C6.07735 15.6078 6.15621 15.5911 6.22949 15.5594C6.30276 15.5278 6.36898 15.4818 6.42427 15.4242L12.4243 9.42421C12.5368 9.31169 12.5999 9.1591 12.5999 8.99999C12.5999 8.84089 12.5368 8.6883 12.4243 8.57577L6.42427 2.57578C6.36836 2.5183 6.30149 2.47261 6.22762 2.44141C6.15375 2.41022 6.07438 2.39414 5.99419 2.39413Z" fill="white"/>
</svg>
