<svg width="18" height="18" viewBox="0 0 18 18" fill="none" xmlns="http://www.w3.org/2000/svg">
<path d="M14.9942 5.3918C14.8359 5.39554 14.6856 5.46167 14.5758 5.57578L9.00005 11.1516L3.42427 5.57578C3.36835 5.51831 3.30149 5.47262 3.22762 5.44142C3.15375 5.41022 3.07438 5.39415 2.99419 5.39414C2.87483 5.39417 2.75819 5.4298 2.65919 5.49647C2.56018 5.56314 2.48331 5.65782 2.43839 5.7684C2.39348 5.87899 2.38256 6.00046 2.40705 6.11728C2.43153 6.23411 2.49029 6.34097 2.57583 6.42422L8.57583 12.4242C8.68836 12.5367 8.84095 12.5999 9.00005 12.5999C9.15915 12.5999 9.31174 12.5367 9.42427 12.4242L15.4243 6.42422C15.5114 6.34043 15.5712 6.23227 15.5958 6.11392C15.6205 5.99557 15.6088 5.87254 15.5623 5.76094C15.5158 5.64935 15.4367 5.5544 15.3353 5.48853C15.2339 5.42266 15.115 5.38895 14.9942 5.3918Z" fill="white"/>
</svg>
