<svg width="18" height="18" viewBox="0 0 18 18" fill="none" xmlns="http://www.w3.org/2000/svg">
<path d="M5.99395 2.39413C5.87459 2.39417 5.75795 2.42979 5.65894 2.49646C5.55994 2.56313 5.48306 2.65781 5.43815 2.7684C5.39324 2.87898 5.38232 3.00045 5.40681 3.11728C5.43129 3.2341 5.49005 3.34096 5.57559 3.42421L11.1514 8.99999L5.57559 14.5758C5.518 14.6311 5.47203 14.6973 5.44036 14.7706C5.40869 14.8438 5.39196 14.9227 5.39114 15.0025C5.39033 15.0823 5.40546 15.1615 5.43563 15.2354C5.4658 15.3093 5.51042 15.3765 5.56687 15.4329C5.62331 15.4894 5.69046 15.534 5.76436 15.5642C5.83827 15.5943 5.91746 15.6095 5.99728 15.6087C6.0771 15.6078 6.15596 15.5911 6.22924 15.5594C6.30252 15.5278 6.36874 15.4818 6.42403 15.4242L12.424 9.42421C12.5365 9.31169 12.5997 9.1591 12.5997 8.99999C12.5997 8.84089 12.5365 8.6883 12.424 8.57577L6.42403 2.57578C6.36811 2.5183 6.30125 2.47261 6.22738 2.44141C6.15351 2.41022 6.07414 2.39414 5.99395 2.39413Z" fill="white"/>
</svg>
