<svg width="22" height="24" viewBox="0 0 22 24" fill="none" xmlns="http://www.w3.org/2000/svg">
<g clip-path="url(#clip0_72_3684)">
<path d="M2.9334 5.6C1.72709 5.6 0.733398 6.68402 0.733398 8V15.2C0.733398 16.516 1.72709 17.6 2.9334 17.6H17.6001C18.8064 17.6 19.8001 16.516 19.8001 15.2V8C19.8001 6.68402 18.8064 5.6 17.6001 5.6H2.9334ZM2.9334 7.2H17.6001C18.0144 7.2 18.3334 7.54797 18.3334 8V15.2C18.3334 15.652 18.0144 16 17.6001 16H2.9334C2.51904 16 2.20007 15.652 2.20007 15.2V8C2.20007 7.54797 2.51904 7.2 2.9334 7.2ZM3.66673 8.8V14.4H12.4667V8.8H3.66673ZM20.5334 9.6V13.6H21.2667C21.6715 13.6 22.0001 13.2416 22.0001 12.8V10.4C22.0001 9.9584 21.6715 9.6 21.2667 9.6H20.5334Z" fill="#333333"/>
</g>
<defs>
<clipPath id="clip0_72_3684">
<rect width="22" height="24" fill="white"/>
</clipPath>
</defs>
</svg>
