<svg width="20" height="20" viewBox="0 0 20 20" fill="none" xmlns="http://www.w3.org/2000/svg">
<path d="M9.99984 3.33333C6.33317 3.33333 3.0001 4.80026 0.600098 7.26692L2.93343 9.60025C4.73343 7.80026 7.2665 6.66666 9.99984 6.66666C12.7332 6.66666 15.2662 7.80026 17.0662 9.60025L19.3996 7.26692C16.9996 4.80026 13.6665 3.33333 9.99984 3.33333ZM9.99984 7.99999C7.59984 7.99999 5.46702 9.00052 3.86702 10.5338L6.20036 12.8672C7.13369 11.9338 8.4665 11.3333 9.99984 11.3333C11.5332 11.3333 12.7993 11.9338 13.7993 12.8672L16.1326 10.5338C14.5326 9.00052 12.3998 7.99999 9.99984 7.99999ZM9.99984 12.6667C8.8665 12.6667 7.86702 13.1338 7.20036 13.8672L9.99984 16.6667L12.7993 13.8672C12.1326 13.1338 11.1332 12.6667 9.99984 12.6667Z" fill="#333333"/>
</svg>
