<svg width="25" height="25" viewBox="0 0 25 25" fill="none" xmlns="http://www.w3.org/2000/svg">
<path d="M19 13.5C21.3575 13.5 23 15.081 23 16.5C23 16.7755 22.776 17 22.5 17H15.5C15.224 17 15 16.7755 15 16.5C15 15.081 16.6425 13.5 19 13.5ZM12.5 17C14.8575 17 16.5 18.581 16.5 20C16.5 20.2755 16.276 20.5 16 20.5H9C8.724 20.5 8.5 20.2755 8.5 20C8.5 18.581 10.1425 17 12.5 17ZM6 13.5C8.3575 13.5 10 15.081 10 16.5C10 16.7755 9.776 17 9.5 17H2.5C2.224 17 2 16.7755 2 16.5C2 15.081 3.6425 13.5 6 13.5ZM19 12.625C17.8955 12.625 17 11.6735 17 10.5C17 9.3265 17.8955 8.375 19 8.375C20.1045 8.375 21 9.3265 21 10.5C21 11.6735 20.1045 12.625 19 12.625ZM12.5 16.125C11.3955 16.125 10.5 15.1735 10.5 14C10.5 12.8265 11.3955 11.875 12.5 11.875C13.6045 11.875 14.5 12.8265 14.5 14C14.5 15.1735 13.6045 16.125 12.5 16.125ZM6 12.625C4.8955 12.625 4 11.6735 4 10.5C4 9.3265 4.8955 8.375 6 8.375C7.1045 8.375 8 9.3265 8 10.5C8 11.6735 7.1045 12.625 6 12.625ZM12.5 9.625C11.3955 9.625 10.5 8.6735 10.5 7.5C10.5 6.3265 11.3955 5.375 12.5 5.375C13.6045 5.375 14.5 6.3265 14.5 7.5C14.5 8.6735 13.6045 9.625 12.5 9.625Z" fill="#333333"/>
</svg>
