<svg width="22" height="22" viewBox="0 0 22 22" fill="none" xmlns="http://www.w3.org/2000/svg">
<path d="M12.4766 3.66666C11.5049 3.66666 10.6425 4.31518 10.3682 5.24504C10.8581 5.36238 11.3164 5.56896 11.7132 5.86522L11.7705 5.66757C11.8599 5.3515 12.148 5.13332 12.4766 5.13332H16.8565C17.1843 5.13332 17.4732 5.3515 17.5626 5.66757L17.8233 6.58996C17.9091 6.89356 17.6588 7.18466 17.3464 7.1414C16.6013 7.03653 15.7145 6.96666 14.6666 6.96666C13.9472 6.96666 13.3086 7.00119 12.7344 7.05546C12.8627 7.29086 12.9761 7.53835 13.0509 7.80455L13.3331 8.79999H15.3899H15.3999C15.4021 8.79999 15.4041 8.80142 15.407 8.80142C16.0113 8.80436 16.5903 8.95764 17.1014 9.22825C17.3024 8.96938 17.6131 8.79999 17.9666 8.79999C18.5738 8.79999 19.0666 9.29279 19.0666 9.89999C19.0666 10.2579 18.893 10.5721 18.6283 10.7723C18.7463 10.9923 18.8494 11.2226 18.919 11.4698L19.3616 13.0381C19.4848 13.1335 19.632 13.2 19.7999 13.2C20.2047 13.2 20.5332 12.8715 20.5332 12.4667V11.9596V11V9.02486C20.5332 8.44186 20.1854 7.92379 19.6581 7.69426L18.9735 5.26939C18.708 4.32559 17.837 3.66666 16.8565 3.66666H12.4766ZM5.14325 6.59999C4.16278 6.59999 3.29252 7.25892 3.02632 8.20272L2.34168 10.6276C1.81442 10.8571 1.46655 11.3752 1.46655 11.9582V14.893V15.4C1.46655 15.8048 1.79509 16.1333 2.19989 16.1333C2.60469 16.1333 2.93322 15.8048 2.93322 15.4V15.082C3.76464 15.1802 4.84247 15.2928 5.89806 15.3542C5.97213 14.568 6.34367 13.8481 6.94793 13.359L7.48075 11.4712C7.64795 10.8772 7.96027 10.3525 8.3702 9.9272C8.04166 9.91107 7.70062 9.89999 7.33322 9.89999C6.28529 9.89999 5.39777 9.96986 4.65197 10.0747C4.33957 10.1187 4.09065 9.82763 4.17645 9.5233L4.43713 8.6009C4.52659 8.28483 4.81471 8.06666 5.14325 8.06666H9.52319C9.85099 8.06666 10.1398 8.28483 10.2293 8.6009L10.3067 8.8759C10.5362 8.83043 10.7701 8.79999 11.0099 8.79999H11.8091L11.6401 8.20272C11.3747 7.25892 10.5037 6.59999 9.52319 6.59999H5.14325ZM11.0099 10.2667C10.0294 10.2667 9.15919 10.9256 8.89299 11.8694L8.20692 14.2943C7.68038 14.5238 7.33322 15.0419 7.33322 15.6249V18.5596V19.0667C7.33322 19.4715 7.66175 19.8 8.06655 19.8C8.47135 19.8 8.79989 19.4715 8.79989 19.0667V18.743C10.016 18.8925 11.6508 19.0667 13.1999 19.0667C14.749 19.0667 16.3837 18.8925 17.5999 18.743V19.0667C17.5999 19.4715 17.9284 19.8 18.3332 19.8C18.738 19.8 19.0666 19.4715 19.0666 19.0667V18.5596V15.6249C19.0666 15.0419 18.7187 14.5238 18.1914 14.2943L17.5068 11.8694C17.2413 10.9256 16.3703 10.2667 15.3899 10.2667H11.0099ZM4.03322 11.7333C4.64042 11.7333 5.13322 12.2261 5.13322 12.8333C5.13322 13.4405 4.64042 13.9333 4.03322 13.9333C3.42602 13.9333 2.93322 13.4405 2.93322 12.8333C2.93322 12.2261 3.42602 11.7333 4.03322 11.7333ZM11.0099 11.7333H15.3899C15.7177 11.7333 16.0065 11.9515 16.096 12.2676L16.3567 13.19C16.4425 13.4936 16.1921 13.7847 15.8797 13.7414C15.1346 13.6365 14.2478 13.5667 13.1999 13.5667C12.152 13.5667 11.2644 13.6365 10.5186 13.7414C10.2062 13.7854 9.95732 13.4943 10.0431 13.19L10.3038 12.2676C10.3933 11.9515 10.6814 11.7333 11.0099 11.7333ZM9.89989 15.4C10.5071 15.4 10.9999 15.8928 10.9999 16.5C10.9999 17.1072 10.5071 17.6 9.89989 17.6C9.29269 17.6 8.79989 17.1072 8.79989 16.5C8.79989 15.8928 9.29269 15.4 9.89989 15.4ZM16.4999 15.4C17.1071 15.4 17.5999 15.8928 17.5999 16.5C17.5999 17.1072 17.1071 17.6 16.4999 17.6C15.8927 17.6 15.3999 17.1072 15.3999 16.5C15.3999 15.8928 15.8927 15.4 16.4999 15.4Z" fill="#333333"/>
</svg>
