<svg width="22" height="22" viewBox="0 0 22 22" fill="none" xmlns="http://www.w3.org/2000/svg">
<path d="M14.5935 1.47097L7.26019 2.20431C6.88619 2.24171 6.5999 2.55641 6.5999 2.93334V3.66668H5.13324C4.72844 3.66668 4.3999 3.99521 4.3999 4.40001V5.86667H17.5999V4.40001C17.5999 3.99521 17.2714 3.66668 16.8666 3.66668H15.3999V2.20001C15.3999 1.99248 15.3133 1.79577 15.1593 1.65717C15.0053 1.51857 14.8011 1.45044 14.5935 1.47097ZM5.13324 7.33334L6.44808 18.5052C6.53535 19.2437 7.16039 19.8 7.90472 19.8H14.0965C14.8401 19.8 15.4652 19.2437 15.5517 18.5052L16.8666 7.33334H5.13324ZM11.0013 10.2667C12.3668 10.2667 13.503 11.2039 13.8301 12.4667H15.0776L14.9043 13.9333H13.8301C13.503 15.1961 12.3654 16.1333 10.9999 16.1333C9.63444 16.1333 8.49749 15.1961 8.16969 13.9333H7.11266L6.94079 12.4667H8.17113C8.49819 11.2039 9.63587 10.2667 11.0013 10.2667ZM10.9999 11.7333C10.6109 11.7333 10.2379 11.8879 9.96281 12.1629C9.68776 12.438 9.53324 12.811 9.53324 13.2C9.53324 13.589 9.68776 13.962 9.96281 14.2371C10.2379 14.5122 10.6109 14.6667 10.9999 14.6667C11.3889 14.6667 11.7619 14.5122 12.037 14.2371C12.312 13.962 12.4666 13.589 12.4666 13.2C12.4666 12.811 12.312 12.438 12.037 12.1629C11.7619 11.8879 11.3889 11.7333 10.9999 11.7333Z" fill="#333333"/>
</svg>
