<svg width="22" height="22" viewBox="0 0 22 22" fill="none" xmlns="http://www.w3.org/2000/svg">
<path d="M11 2.20001C6.14015 2.20001 2.19995 6.14021 2.19995 11C2.19995 15.8598 6.14015 19.8 11 19.8C15.8598 19.8 19.8 15.8598 19.8 11C19.8 6.14021 15.8598 2.20001 11 2.20001ZM11.8888 5.86668L11.7421 12.4667H10.2578L10.1112 5.86668H11.8888ZM11.0022 16.2719C10.395 16.2719 10.032 15.9485 10.032 15.4051C10.032 14.8515 10.3942 14.5281 11.0022 14.5281C11.605 14.5281 11.9672 14.8515 11.9672 15.4051C11.9672 15.9485 11.605 16.2719 11.0022 16.2719Z" fill="#333333"/>
</svg>
