<svg width="22" height="22" viewBox="0 0 22 22" fill="none" xmlns="http://www.w3.org/2000/svg">
<path d="M11 2.20001C6.10867 2.20001 2.12695 6.18173 2.12695 11.0731C2.12695 13.5224 3.12343 15.7376 4.72943 17.3436L5.76354 16.3095C4.42154 14.9675 3.59362 13.1117 3.59362 11.0731C3.59362 6.98839 6.91533 3.66668 11 3.66668C15.0847 3.66668 18.4064 6.98839 18.4064 11.0731C18.4064 13.1117 17.5785 14.9675 16.2365 16.3095L17.2706 17.3436C18.8766 15.7376 19.873 13.5224 19.873 11.0731C19.873 6.18173 15.8913 2.20001 11 2.20001ZM11 5.11186C7.70733 5.11186 5.03021 7.78773 5.03021 11.0731C5.03021 12.7157 5.698 14.2117 6.78333 15.2897L7.81745 14.2556C7.00345 13.4416 6.49688 12.3197 6.49688 11.0731C6.49688 8.59439 8.52133 6.57853 11 6.57853C13.4787 6.57853 15.5031 8.59439 15.5031 11.0731C15.5031 12.3197 14.9966 13.4416 14.1826 14.2556L15.2167 15.2897C16.302 14.2117 16.9698 12.7157 16.9698 11.0731C16.9698 7.78773 14.2927 5.11186 11 5.11186ZM11 8.74845C9.71667 8.74845 8.67539 9.78973 8.67539 11.0731C8.67539 11.7184 8.93183 12.2979 9.35716 12.7159V12.7231C9.77516 13.1411 10.3547 13.4048 11 13.4048C11.6453 13.4048 12.2248 13.1411 12.6428 12.7231V12.7159C13.0682 12.2979 13.3246 11.7184 13.3246 11.0731C13.3246 9.78973 12.2833 8.74845 11 8.74845Z" fill="#333333"/>
</svg>
