<svg width="22" height="22" viewBox="0 0 22 22" fill="none" xmlns="http://www.w3.org/2000/svg">
<path d="M17.6 2.93335H4.40002C3.58968 2.93335 2.93335 3.58968 2.93335 4.40002V17.6C2.93335 18.4103 3.58968 19.0667 4.40002 19.0667H17.6C18.4103 19.0667 19.0667 18.4103 19.0667 17.6V4.40002C19.0667 3.58968 18.4103 2.93335 17.6 2.93335ZM5.13335 16.8667C4.72855 16.8667 4.40002 16.5381 4.40002 16.1334C4.40002 15.7285 4.72855 15.4 5.13335 15.4C5.53815 15.4 5.86668 15.7285 5.86668 16.1334C5.86668 16.5381 5.53815 16.8667 5.13335 16.8667ZM5.13335 13.9333C4.72855 13.9333 4.40002 13.6048 4.40002 13.2C4.40002 12.7952 4.72855 12.4667 5.13335 12.4667C5.53815 12.4667 5.86668 12.7952 5.86668 13.2C5.86668 13.6048 5.53815 13.9333 5.13335 13.9333ZM8.06668 16.8667C7.66188 16.8667 7.33335 16.5381 7.33335 16.1334C7.33335 15.7285 7.66188 15.4 8.06668 15.4C8.47148 15.4 8.80002 15.7285 8.80002 16.1334C8.80002 16.5381 8.47148 16.8667 8.06668 16.8667ZM8.06668 13.9333C7.66188 13.9333 7.33335 13.6048 7.33335 13.2C7.33335 12.7952 7.66188 12.4667 8.06668 12.4667C8.47148 12.4667 8.80002 12.7952 8.80002 13.2C8.80002 13.6048 8.47148 13.9333 8.06668 13.9333ZM8.06668 11C7.66188 11 7.33335 10.6715 7.33335 10.2667C7.33335 9.86188 7.66188 9.53335 8.06668 9.53335C8.47148 9.53335 8.80002 9.86188 8.80002 10.2667C8.80002 10.6715 8.47148 11 8.06668 11ZM11 16.8667C10.5952 16.8667 10.2667 16.5381 10.2667 16.1334C10.2667 15.7285 10.5952 15.4 11 15.4C11.4048 15.4 11.7333 15.7285 11.7333 16.1334C11.7333 16.5381 11.4048 16.8667 11 16.8667ZM11 13.9333C10.5952 13.9333 10.2667 13.6048 10.2667 13.2C10.2667 12.7952 10.5952 12.4667 11 12.4667C11.4048 12.4667 11.7333 12.7952 11.7333 13.2C11.7333 13.6048 11.4048 13.9333 11 13.9333ZM11 11C10.5952 11 10.2667 10.6715 10.2667 10.2667C10.2667 9.86188 10.5952 9.53335 11 9.53335C11.4048 9.53335 11.7333 9.86188 11.7333 10.2667C11.7333 10.6715 11.4048 11 11 11ZM13.9333 16.8667C13.5286 16.8667 13.2 16.5381 13.2 16.1334C13.2 15.7285 13.5286 15.4 13.9333 15.4C14.3382 15.4 14.6667 15.7285 14.6667 16.1334C14.6667 16.5381 14.3382 16.8667 13.9333 16.8667ZM13.9333 13.9333C13.5286 13.9333 13.2 13.6048 13.2 13.2C13.2 12.7952 13.5286 12.4667 13.9333 12.4667C14.3382 12.4667 14.6667 12.7952 14.6667 13.2C14.6667 13.6048 14.3382 13.9333 13.9333 13.9333ZM13.2 10.2667C13.2 9.86188 13.5286 9.53335 13.9333 9.53335C14.3382 9.53335 14.6667 9.86188 14.6667 10.2667C14.6667 10.6715 14.3382 11 13.9333 11C13.5286 11 13.2 10.6715 13.2 10.2667ZM16.8667 13.9333C16.4619 13.9333 16.1334 13.6048 16.1334 13.2C16.1334 12.7952 16.4619 12.4667 16.8667 12.4667C17.2715 12.4667 17.6 12.7952 17.6 13.2C17.6 13.6048 17.2715 13.9333 16.8667 13.9333ZM16.8667 11C16.4619 11 16.1334 10.6715 16.1334 10.2667C16.1334 9.86188 16.4619 9.53335 16.8667 9.53335C17.2715 9.53335 17.6 9.86188 17.6 10.2667C17.6 10.6715 17.2715 11 16.8667 11ZM17.6 7.33335H4.40002V4.40002H17.6V7.33335Z" fill="#333333"/>
</svg>
