<svg width="18" height="20" viewBox="0 0 18 20" fill="none" xmlns="http://www.w3.org/2000/svg">
<path d="M14.9637 1.83073C14.8492 1.8295 14.7369 1.86466 14.6398 1.93205C14.5428 1.99944 14.4651 2.09626 14.416 2.21108C14.3668 2.32591 14.3483 2.45396 14.3625 2.58013C14.3767 2.7063 14.423 2.82532 14.4961 2.92318C15.935 4.91193 16.8 7.42648 16.8 10.1706C16.8 12.7692 16.0185 15.157 14.7129 17.0951C14.6656 17.1652 14.6313 17.2449 14.6118 17.3298C14.5923 17.4146 14.588 17.5029 14.5992 17.5896C14.6104 17.6763 14.6369 17.7597 14.6771 17.835C14.7173 17.9104 14.7705 17.9762 14.8336 18.0286C14.8967 18.0811 14.9685 18.1193 15.0448 18.141C15.1212 18.1627 15.2007 18.1674 15.2787 18.1549C15.3567 18.1425 15.4318 18.1131 15.4996 18.0684C15.5674 18.0237 15.6266 17.9646 15.6738 17.8945C17.1258 15.7393 18 13.0666 18 10.1706C18 7.11466 17.0331 4.30115 15.4313 2.08724C15.3757 2.00815 15.3048 1.94401 15.2238 1.8996C15.1429 1.85518 15.054 1.83164 14.9637 1.83073ZM12.0223 3.76432C11.908 3.76157 11.7954 3.79512 11.6977 3.86105C11.6 3.92698 11.5213 4.02253 11.4709 4.13647C11.4204 4.2504 11.4003 4.37798 11.4128 4.5042C11.4254 4.63042 11.4701 4.75003 11.5418 4.84896C12.5781 6.32215 13.2 8.1625 13.2 10.1706C13.2 12.0367 12.6635 13.7579 11.7563 15.1758C11.7069 15.2468 11.671 15.3282 11.6507 15.4151C11.6304 15.5019 11.626 15.5924 11.6379 15.6812C11.6498 15.7699 11.6777 15.8551 11.7199 15.9316C11.7622 16.0081 11.8179 16.0743 11.8837 16.1263C11.9495 16.1783 12.0241 16.215 12.103 16.2342C12.1819 16.2534 12.2635 16.2547 12.3428 16.2381C12.4222 16.2214 12.4977 16.1871 12.5648 16.1373C12.632 16.0874 12.6894 16.023 12.7336 15.9479C13.7776 14.3164 14.4 12.3217 14.4 10.1706C14.4 7.85597 13.6796 5.72345 12.4875 4.02864C12.4329 3.94846 12.3627 3.88304 12.2821 3.83726C12.2016 3.79149 12.1127 3.76655 12.0223 3.76432ZM6.6 4.66667L4.07578 7.33333H1.8C0.8058 7.33333 0 8.22867 0 9.33333V10.6667C0 11.7713 0.8058 12.6667 1.8 12.6667H4.07578L6.6 15.3333V4.66667ZM8.84297 5.72786C8.72378 5.72503 8.60654 5.7617 8.50619 5.83321C8.40584 5.90471 8.32694 6.00781 8.27954 6.12935C8.23214 6.25088 8.21839 6.38535 8.24006 6.51561C8.26172 6.64586 8.31781 6.76599 8.40117 6.86068C9.14367 7.72499 9.6 8.88543 9.6 10.1706C9.6 11.3193 9.23554 12.3692 8.62852 13.1979C8.57585 13.2654 8.53593 13.3439 8.51111 13.4289C8.4863 13.5139 8.4771 13.6035 8.48406 13.6925C8.49102 13.7815 8.51401 13.868 8.55164 13.9469C8.58928 14.0258 8.64081 14.0955 8.70316 14.1519C8.76552 14.2083 8.83743 14.2501 8.91463 14.275C8.99183 14.2999 9.07275 14.3073 9.15258 14.2968C9.2324 14.2863 9.30951 14.258 9.37932 14.2138C9.44914 14.1695 9.51023 14.1101 9.55899 14.0391C10.332 12.9838 10.8 11.6338 10.8 10.1706C10.8 8.53304 10.2142 7.03979 9.26953 5.9401C9.21482 5.87482 9.14888 5.8224 9.07561 5.78594C9.00234 5.74949 8.92323 5.72974 8.84297 5.72786Z" fill="#333333"/>
</svg>
