<svg width="24" height="24" viewBox="0 0 24 24" fill="none" xmlns="http://www.w3.org/2000/svg">
<path d="M16.293 2.29297L12.5 6.08594L10.707 4.29297L9.29297 5.70703L10.0859 6.5L7.87891 8.70703C6.71583 9.8701 6.71583 11.7861 7.87891 12.9492L8.75781 13.8281L2.29297 20.293L3.70703 21.707L10.1719 15.2422L11.0508 16.1211C12.2139 17.2842 14.1299 17.2842 15.293 16.1211L17.5 13.9141L18.293 14.707L19.707 13.293L17.9141 11.5L21.707 7.70703L20.293 6.29297L16.5 10.0859L13.9141 7.5L17.707 3.70703L16.293 2.29297ZM11.5 7.91406L16.0859 12.5L13.8789 14.707C13.48 15.106 12.8638 15.106 12.4648 14.707L9.29297 11.5352C8.89404 11.1362 8.89404 10.52 9.29297 10.1211L11.5 7.91406Z" fill="#333333"/>
</svg>
