<svg width="22" height="22" viewBox="0 0 22 22" fill="none" xmlns="http://www.w3.org/2000/svg">
<path d="M10.9884 1.45664C10.8601 1.45905 10.7347 1.49511 10.6246 1.56119L1.91775 5.18919C1.78405 5.24493 1.66985 5.33902 1.58955 5.45959C1.50926 5.58016 1.46647 5.7218 1.46658 5.86666V15.4C1.46655 15.4038 1.46655 15.4076 1.46658 15.4115C1.46719 15.4567 1.47198 15.5017 1.4809 15.5461C1.48182 15.5499 1.48278 15.5537 1.48376 15.5575C1.48824 15.5768 1.49349 15.596 1.49952 15.6148V15.6163C1.50615 15.6381 1.5138 15.6596 1.52243 15.6807C1.52741 15.6918 1.53267 15.7028 1.53819 15.7137C1.54317 15.7248 1.54842 15.7358 1.55394 15.7466C1.55489 15.748 1.55585 15.7495 1.55681 15.7509C1.56778 15.7715 1.57973 15.7916 1.59262 15.8111L1.59405 15.8139C1.60704 15.8327 1.6209 15.8509 1.63559 15.8684C1.64965 15.8852 1.66446 15.9015 1.67999 15.9171C1.68236 15.9195 1.68474 15.9218 1.68715 15.9242L1.68858 15.9256C1.69283 15.9295 1.69713 15.9333 1.70147 15.9371C1.71395 15.949 1.72685 15.9605 1.74014 15.9715C1.74157 15.9724 1.743 15.9734 1.74444 15.9743C1.76239 15.9891 1.78103 16.0029 1.8003 16.0159C1.8041 16.0183 1.80792 16.0207 1.81176 16.023C1.83219 16.0355 1.85322 16.047 1.87478 16.0574L10.6719 20.456C10.7738 20.5069 10.886 20.5334 10.9999 20.5334C11.1138 20.5334 11.2261 20.5069 11.3279 20.456L20.1279 16.056C20.144 16.048 20.1597 16.0394 20.1752 16.0302C20.1766 16.0293 20.178 16.0283 20.1795 16.0273C20.1911 16.02 20.2026 16.0124 20.2138 16.0044C20.2265 15.9957 20.239 15.9867 20.2511 15.9772C20.2653 15.9663 20.2792 15.9548 20.2926 15.9428C20.2974 15.9386 20.3022 15.9343 20.3069 15.9299C20.3198 15.9175 20.3322 15.9046 20.3442 15.8913C20.3485 15.8866 20.3528 15.8818 20.3571 15.8769C20.3685 15.8635 20.3795 15.8496 20.39 15.8354C20.391 15.834 20.3919 15.8326 20.3929 15.8311C20.4067 15.8126 20.4196 15.7935 20.4315 15.7738C20.435 15.7681 20.4383 15.7624 20.4416 15.7566C20.444 15.7514 20.4464 15.7462 20.4487 15.7409C20.4689 15.7028 20.4857 15.663 20.4989 15.622C20.5004 15.6168 20.5018 15.6115 20.5032 15.6062C20.5087 15.5878 20.5134 15.5692 20.5175 15.5504C20.518 15.548 20.5185 15.5456 20.5189 15.5432C20.528 15.4979 20.5328 15.4519 20.5332 15.4057C20.5332 15.4038 20.5332 15.4019 20.5332 15.4V5.86666C20.5333 5.7218 20.4906 5.58016 20.4103 5.45959C20.33 5.33902 20.2158 5.24493 20.0821 5.18919L11.3766 1.56263C11.2596 1.4918 11.1252 1.45509 10.9884 1.45664ZM10.2666 3.29999V10.5474L2.93324 14.2141V6.35507L10.2666 3.29999ZM11.7332 3.29999L19.0666 6.3565V14.2141L16.8666 13.1141V8.39895L13.9332 7.14427V11.6474L11.7332 10.5474V3.29999ZM8.06657 6.41093L5.13324 7.66562V10.9141L8.06657 9.44596V6.41093Z" fill="#333333"/>
</svg>
