<svg width="20" height="20" viewBox="0 0 20 20" fill="none" xmlns="http://www.w3.org/2000/svg">
<path d="M1.33339 3.33332C1.24505 3.33207 1.15734 3.34839 1.07536 3.38133C0.993381 3.41428 0.918767 3.46318 0.855854 3.52521C0.79294 3.58724 0.742983 3.66116 0.708885 3.74266C0.674786 3.82417 0.657227 3.91164 0.657227 3.99999C0.657227 4.08834 0.674786 4.1758 0.708885 4.25731C0.742983 4.33881 0.79294 4.41273 0.855854 4.47476C0.918767 4.53679 0.993381 4.5857 1.07536 4.61864C1.15734 4.65158 1.24505 4.6679 1.33339 4.66665H18.6667C18.7551 4.6679 18.8428 4.65158 18.9247 4.61864C19.0067 4.5857 19.0813 4.53679 19.1443 4.47476C19.2072 4.41273 19.2571 4.33881 19.2912 4.25731C19.3253 4.1758 19.3429 4.08834 19.3429 3.99999C19.3429 3.91164 19.3253 3.82417 19.2912 3.74266C19.2571 3.66116 19.2072 3.58724 19.1443 3.52521C19.0813 3.46318 19.0067 3.41428 18.9247 3.38133C18.8428 3.34839 18.7551 3.33207 18.6667 3.33332H1.33339ZM2.00005 5.99999L1.33729 15.9336L1.33599 15.9505C1.33451 15.967 1.33364 15.9835 1.33339 16C1.33339 16.1768 1.40363 16.3464 1.52865 16.4714C1.65367 16.5964 1.82324 16.6667 2.00005 16.6667C2.14231 16.6667 2.28084 16.6212 2.3954 16.5369C2.50996 16.4525 2.59454 16.3337 2.63677 16.1979V16.1966L4.64068 9.61196C4.81068 9.05063 5.32809 8.66665 5.91542 8.66665H14.0847C14.6714 8.66665 15.1888 9.05063 15.3594 9.61196L17.3581 16.1784C17.3602 16.1845 17.3624 16.1906 17.3646 16.1966C17.4066 16.3325 17.4909 16.4514 17.6052 16.5359C17.7195 16.6205 17.8579 16.6663 18.0001 16.6667C18.1769 16.6667 18.3464 16.5964 18.4715 16.4714C18.5965 16.3464 18.6667 16.1768 18.6667 16C18.6666 15.9774 18.6653 15.9548 18.6628 15.9323L18.0001 5.99999H2.00005Z" fill="#333333"/>
</svg>
