<svg width="20" height="20" viewBox="0 0 20 20" fill="none" xmlns="http://www.w3.org/2000/svg">
<path d="M10 1.33334C5.582 1.33334 2 4.91534 2 9.33334V16C2 16.7367 2.59667 17.3333 3.33333 17.3333H5.65365L6.27344 15.7787C5.3281 15.3687 4.66667 14.4293 4.66667 13.3333V9.76564C4.66667 9.47897 4.71272 9.19519 4.80339 8.92319L5.69661 6.2448C5.87795 5.7008 6.38694 5.33334 6.96094 5.33334H8.1849C8.41556 4.93668 8.84133 4.66668 9.33333 4.66668H10.6667C11.1587 4.66668 11.5838 4.93668 11.8151 5.33334H13.0391C13.6131 5.33334 14.1221 5.70014 14.3034 6.2448L15.1966 8.92319C15.2873 9.19452 15.3333 9.47897 15.3333 9.76564V13.3333C15.3333 14.4293 14.6719 15.3687 13.7266 15.7787L14.3464 17.3333H16.6667C17.4033 17.3333 18 16.7367 18 16V9.33334C18 4.91534 14.418 1.33334 10 1.33334ZM6.96094 6.66668L6.07161 9.33334H13.9284L13.0391 6.66668H6.96094ZM7 12.6667C6.73478 12.6667 6.48043 12.772 6.29289 12.9596C6.10536 13.1471 6 13.4015 6 13.6667C6 13.9319 6.10536 14.1862 6.29289 14.3738C6.48043 14.5613 6.73478 14.6667 7 14.6667C7.26522 14.6667 7.51957 14.5613 7.70711 14.3738C7.89464 14.1862 8 13.9319 8 13.6667C8 13.4015 7.89464 13.1471 7.70711 12.9596C7.51957 12.772 7.26522 12.6667 7 12.6667ZM13 12.6667C12.7348 12.6667 12.4804 12.772 12.2929 12.9596C12.1054 13.1471 12 13.4015 12 13.6667C12 13.9319 12.1054 14.1862 12.2929 14.3738C12.4804 14.5613 12.7348 14.6667 13 14.6667C13.2652 14.6667 13.5196 14.5613 13.7071 14.3738C13.8946 14.1862 14 13.9319 14 13.6667C14 13.4015 13.8946 13.1471 13.7071 12.9596C13.5196 12.772 13.2652 12.6667 13 12.6667ZM7.73437 16L7.20182 17.3333H12.7982L12.2656 16H7.73437Z" fill="#333333"/>
</svg>
