<svg width="20" height="20" viewBox="0 0 20 20" fill="none" xmlns="http://www.w3.org/2000/svg">
<g clip-path="url(#clip0_49_2603)">
<path d="M5.99989 2C5.91155 1.99875 5.82384 2.01507 5.74186 2.04801C5.65988 2.08095 5.58527 2.12986 5.52236 2.19189C5.45944 2.25392 5.40949 2.32784 5.37539 2.40934C5.34129 2.49085 5.32373 2.57831 5.32373 2.66666C5.32373 2.75501 5.34129 2.84248 5.37539 2.92399C5.40949 3.00549 5.45944 3.07941 5.52236 3.14144C5.58527 3.20347 5.65988 3.25237 5.74186 3.28532C5.82384 3.31826 5.91155 3.33458 5.99989 3.33333H13.9999C14.0882 3.33458 14.1759 3.31826 14.2579 3.28532C14.3399 3.25237 14.4145 3.20347 14.4774 3.14144C14.5403 3.07941 14.5903 3.00549 14.6244 2.92399C14.6585 2.84248 14.6761 2.75501 14.6761 2.66666C14.6761 2.57831 14.6585 2.49085 14.6244 2.40934C14.5903 2.32784 14.5403 2.25392 14.4774 2.19189C14.4145 2.12986 14.3399 2.08095 14.2579 2.04801C14.1759 2.01507 14.0882 1.99875 13.9999 2H5.99989ZM3.99989 4.66666C3.91155 4.66542 3.82384 4.68174 3.74186 4.71468C3.65988 4.74762 3.58527 4.79653 3.52236 4.85856C3.45944 4.92059 3.40949 4.9945 3.37539 5.07601C3.34129 5.15751 3.32373 5.24498 3.32373 5.33333C3.32373 5.42168 3.34129 5.50915 3.37539 5.59066C3.40949 5.67216 3.45944 5.74608 3.52236 5.8081C3.58527 5.87013 3.65988 5.91904 3.74186 5.95198C3.82384 5.98493 3.91155 6.00125 3.99989 6V18H7.99989V14.6667H8.66656V13.3333H7.99989V10.6667C7.99989 9.562 8.89523 8.66667 9.99989 8.66667H15.9999V6C16.0882 6.00125 16.1759 5.98493 16.2579 5.95198C16.3399 5.91904 16.4145 5.87013 16.4774 5.8081C16.5403 5.74608 16.5903 5.67216 16.6244 5.59066C16.6585 5.50915 16.6761 5.42168 16.6761 5.33333C16.6761 5.24498 16.6585 5.15751 16.6244 5.07601C16.5903 4.9945 16.5403 4.92059 16.4774 4.85856C16.4145 4.79653 16.3399 4.74762 16.2579 4.71468C16.1759 4.68174 16.0882 4.66542 15.9999 4.66666H3.99989ZM5.33323 6.66667H6.66656V8H5.33323V6.66667ZM7.99989 6.66667H9.33322V8H7.99989V6.66667ZM10.6666 6.66667H11.9999V8H10.6666V6.66667ZM13.3332 6.66667H14.6666V8H13.3332V6.66667ZM5.33323 9.33333H6.66656V10.6667H5.33323V9.33333ZM9.99989 10C9.91155 9.99875 9.82384 10.0151 9.74186 10.048C9.65988 10.081 9.58527 10.1299 9.52236 10.1919C9.45944 10.2539 9.40949 10.3278 9.37539 10.4093C9.34129 10.4908 9.32373 10.5783 9.32373 10.6667C9.32373 10.755 9.34129 10.8425 9.37539 10.924C9.40949 11.0055 9.45944 11.0794 9.52236 11.1414C9.58527 11.2035 9.65988 11.2524 9.74186 11.2853C9.82384 11.3183 9.91155 11.3346 9.99989 11.3333V20H13.9999V17.3333H15.3332V20H19.3332V11.3333C19.4216 11.3346 19.5093 11.3183 19.5913 11.2853C19.6732 11.2524 19.7478 11.2035 19.8108 11.1414C19.8737 11.0794 19.9236 11.0055 19.9577 10.924C19.9918 10.8425 20.0094 10.755 20.0094 10.6667C20.0094 10.5783 19.9918 10.4908 19.9577 10.4093C19.9236 10.3278 19.8737 10.2539 19.8108 10.1919C19.7478 10.1299 19.6732 10.081 19.5913 10.048C19.5093 10.0151 19.4216 9.99875 19.3332 10H9.99989ZM5.33323 12H6.66656V13.3333H5.33323V12ZM11.3332 12H12.6666V13.3333H11.3332V12ZM13.9999 12H15.3332V13.3333H13.9999V12ZM16.6666 12H17.9999V13.3333H16.6666V12ZM5.33323 14.6667H6.66656V16H5.33323V14.6667ZM11.3332 14.6667H12.6666V16H11.3332V14.6667ZM13.9999 14.6667H15.3332V16H13.9999V14.6667ZM16.6666 14.6667H17.9999V16H16.6666V14.6667ZM11.3332 17.3333H12.6666V18.6667H11.3332V17.3333ZM16.6666 17.3333H17.9999V18.6667H16.6666V17.3333Z" fill="#333333"/>
</g>
<defs>
<clipPath id="clip0_49_2603">
<rect width="20" height="20" fill="white"/>
</clipPath>
</defs>
</svg>
