<svg width="20" height="20" viewBox="0 0 20 20" fill="none" xmlns="http://www.w3.org/2000/svg">
<path d="M14.6666 1.33334C13.5979 1.33334 12.5945 1.74989 11.8385 2.50522L10.5051 3.83855C9.74979 4.59455 9.33325 5.59801 9.33325 6.66668C9.33325 7.50952 9.59552 8.30933 10.0754 8.98178L8.98169 10.0755C8.30916 9.59584 7.50892 9.33334 6.66659 9.33334C5.59792 9.33334 4.59446 9.74989 3.83846 10.5052L2.50513 11.8386C1.74979 12.5946 1.33325 13.598 1.33325 14.6667C1.33325 15.7353 1.74979 16.7388 2.50513 17.4948C3.26046 18.2508 4.26459 18.6667 5.33325 18.6667C6.40192 18.6667 7.40538 18.2501 8.16138 17.4948L9.49471 16.1615C10.25 15.4055 10.6666 14.402 10.6666 13.3333C10.6666 12.966 10.6141 12.6077 10.5195 12.263L9.32023 13.4622C9.28956 14.1016 9.03867 14.7314 8.552 15.2188L7.21867 16.5521C6.17867 17.5921 4.48717 17.5921 3.44784 16.5521C2.4085 15.5121 2.40784 13.8206 3.44784 12.7813L4.78117 11.4479C5.30117 10.9279 5.98455 10.6693 6.66789 10.6693C7.13573 10.6693 7.59901 10.7994 8.01424 11.043L6.19523 12.862C6.13125 12.9234 6.08017 12.997 6.04498 13.0784C6.00979 13.1598 5.99119 13.2475 5.99029 13.3362C5.98939 13.4248 6.00619 13.5128 6.03972 13.5949C6.07325 13.6771 6.12282 13.7517 6.18554 13.8144C6.24826 13.8771 6.32286 13.9267 6.40498 13.9602C6.4871 13.9937 6.57508 14.0105 6.66378 14.0096C6.75247 14.0087 6.84009 13.9901 6.92151 13.955C7.00293 13.9198 7.07651 13.8687 7.13794 13.8047L13.8046 7.13803C13.9009 7.04439 13.9667 6.92383 13.9934 6.79215C14.02 6.66047 14.0063 6.52381 13.9539 6.40009C13.9015 6.27637 13.813 6.17135 13.6999 6.09879C13.5869 6.02624 13.4545 5.98954 13.3202 5.9935C13.147 5.99866 12.9826 6.07105 12.8619 6.19532L11.0429 8.01433C10.4421 6.99226 10.5714 5.65715 11.4478 4.78126L12.7812 3.44793C13.3012 2.92793 13.9833 2.66928 14.6666 2.66928C15.3499 2.66928 16.032 2.92859 16.552 3.44793C17.592 4.48793 17.592 6.17943 16.552 7.21876L15.2187 8.55209C14.732 9.03876 14.1015 9.28966 13.4622 9.32032L12.2629 10.5195C12.6076 10.6142 12.9659 10.6667 13.3333 10.6667C14.4019 10.6667 15.4054 10.2501 16.1614 9.4948L17.4947 8.16147C18.25 7.40547 18.6666 6.40201 18.6666 5.33334C18.6666 4.26468 18.25 3.26122 17.4947 2.50522C16.7387 1.74989 15.7353 1.33334 14.6666 1.33334Z" fill="#333333"/>
</svg>
